<?xml version="1.0" encoding="UTF-8"?>
<svg width="165px" height="180px" viewBox="0 0 165 180" version="1.1" xmlns="http://www.w3.org/2000/svg" xmlns:xlink="http://www.w3.org/1999/xlink">
    <!-- Generator: Sketch 47.1 (45422) - http://www.bohemiancoding.com/sketch -->
    <title>ic_error_oops</title>
    <desc>Created with Sketch.</desc>
    <defs>
        <path d="M41.421023,102.851844 L48.6790978,94.3548392 L48.6790978,94.3548392 C49.0378051,93.9349017 49.6690214,93.8852649 50.0889589,94.2439722 C50.3113806,94.4339631 50.4394619,94.7118163 50.4394619,95.0043363 L50.4394619,103.501114 L42.1479821,114.378619 L41.1853444,103.590217 L41.1853444,103.590217 C41.161449,103.322418 41.2463972,103.056278 41.421023,102.851844 Z" id="path-1"></path>
        <path d="M91.3783846,89.9905085 L66.5922611,89.9905085 L53.46162,89.9905085 C49.9204705,89.9789244 50.5612966,93.5120781 50.5612966,93.5120781 L53.0994292,127.964952 C53.0994292,127.964952 52.9936737,135.553409 59.741925,135.754488 C60.1770085,135.754488 97.4571423,135.74446 98.3141991,135.754488 C104.839402,135.339189 104.931349,127.945069 104.931349,127.945069 L107.478396,93.4930594 C107.478396,93.4930594 108.072725,89.8516721 104.516542,89.9905085 L91.3783846,89.9905085 Z" id="path-2"></path>
        <ellipse id="path-3" cx="5.56511916" cy="5.53476938" rx="5.56511916" ry="5.53476938"></ellipse>
        <path d="M6.16005042,13.5582711 C8.34935962,17.8272035 -0.0151559829,53.8997807 0.841900781,53.9098087 C2.31144774,53.8162788 6.57733378,48.992847 9.83830275,45.0321297 C11.8347543,42.6072737 13.4545416,40.5057814 13.8253694,40.0110214 C15.5383331,37.7255781 15.5756313,34.7261303 15.5756313,34.7261303 L18.1226788,0.00330519419 L6.16005042,13.5582711 Z" id="path-5"></path>
        <path d="M40.8623446,0.00387153631 L16.076221,0.00387153631 L2.94558001,0.00387153631 C-0.595569472,-0.00771257428 0.0452565732,3.52544116 0.0452565732,3.52544116 L2.58338919,37.978315 C2.58338919,37.978315 2.47763366,45.5667719 9.22588502,45.7678514 C9.66096849,45.7678514 46.9411023,45.7578233 47.7981591,45.7678514 C54.3233624,45.3525523 54.4153085,37.9584318 54.4153085,37.9584318 L56.9623561,3.50642247 C56.9623561,3.50642247 57.5566847,-0.134964894 54.0005022,0.00387153631 L40.8623446,0.00387153631 Z" id="path-7"></path>
        <ellipse id="path-9" cx="3.96333133" cy="3.98892473" rx="3.96333133" ry="3.98892473"></ellipse>
        <ellipse id="path-11" cx="2.14680447" cy="2.16066756" rx="2.14680447" ry="2.16066756"></ellipse>
        <path d="M1.66581607,14.675422 L48.1404667,14.675422 L48.1404667,14.675422 C49.0604715,14.675422 49.8062827,15.4212333 49.8062827,16.3412381 L49.8062827,16.3412381 L49.8062827,16.3412381 C49.8062827,17.2612429 49.0604715,18.0070541 48.1404667,18.0070541 L1.66581607,18.0070541 L1.66581607,18.0070541 C0.745811257,18.0070541 2.84329762e-13,17.2612429 2.84217094e-13,16.3412381 L2.84217094e-13,16.3412381 L2.84217094e-13,16.3412381 C2.84104426e-13,15.4212333 0.745811257,14.675422 1.66581607,14.675422 Z" id="path-13"></path>
        <polygon id="path-15" points="-17.7697661 14.6755129 41.9359799 14.6755129 41.9359799 18.007145 -17.7697661 18.007145"></polygon>
    </defs>
    <g id="Page-1" stroke="none" stroke-width="1" fill="none" fill-rule="evenodd">
        <g id="error-type-1-spec" transform="translate(-105.000000, -164.000000)">
            <g id="配图" transform="translate(105.000000, 153.000000)">
                <ellipse id="Oval-11" fill="#000000" opacity="0.1" transform="translate(83.500000, 178.500000) scale(1, -1) translate(-83.500000, -178.500000) " cx="83.5" cy="178.5" rx="52.5" ry="12.5"></ellipse>
                <g id="盒子" transform="translate(11.000000, 37.000000)">
                    <g id="Rectangle-3">
                        <use fill="#DCDCDC" fill-rule="evenodd" xlink:href="#path-1"></use>
                        <path stroke="#A7A7A7" stroke-width="2" d="M40.6606589,102.202347 L47.9187337,93.7053422 C48.6361483,92.8654672 49.898581,92.7661934 50.738456,93.4836081 C51.1832994,93.8635898 51.4394619,94.4192963 51.4394619,95.0043363 L51.4394619,103.838786 L41.3809816,117.034401 L40.1893017,103.679093 C40.1415108,103.143495 40.3114074,102.611215 40.6606589,102.202347 Z"></path>
                    </g>
                    <g id="Fill-1">
                        <use fill="#C9C9C9" fill-rule="evenodd" xlink:href="#path-2"></use>
                        <path stroke="#A7A7A7" stroke-width="2" d="M52.0992745,127.999637 L49.5672191,93.6292553 C49.5597302,93.5799857 49.5517096,93.5183716 49.5440955,93.4455858 C49.4782779,92.8164175 49.5128948,92.1269724 49.7293443,91.4476796 C50.2118925,89.9332775 51.4699364,88.9839878 53.46162,88.9905085 L91.3783846,88.9905085 L104.477531,88.9912697 C106.520881,88.9114956 107.811157,89.8739479 108.301555,91.4412275 C108.513552,92.1187543 108.551025,92.8058991 108.492698,93.4293915 C108.483495,93.5277715 108.473555,93.6037903 108.475674,93.5667885 L105.931271,127.957503 C105.927644,128.249179 105.890801,128.726176 105.792049,129.329628 C105.628133,130.331279 105.34255,131.334679 104.901358,132.281305 C103.692138,134.875819 101.554087,136.550308 98.3024993,136.75442 C97.9360355,136.750132 90.7394493,136.749177 79.0337776,136.750706 C76.0950732,136.75109 72.978041,136.751619 69.7452559,136.75226 C65.7647021,136.753049 59.6328756,136.754488 59.712141,136.754045 C56.3798423,136.654751 54.1832997,134.954517 53.0070818,132.262081 C52.6048861,131.34143 52.3505282,130.366481 52.211488,129.390061 C52.1284352,128.806817 52.0992172,128.327448 52.0992745,127.999637 Z"></path>
                    </g>
                    <g id="Fill-1" transform="translate(89.355717, 93.218939)">
                        <g id="圈圈-copy-3" transform="translate(0.245830, 2.981061)">
                            <mask id="mask-4" fill="white">
                                <use xlink:href="#path-3"></use>
                            </mask>
                            <g id="Mask" stroke-linecap="round" stroke-linejoin="round">
                                <use fill="#F6F6F6" fill-rule="evenodd" xlink:href="#path-3"></use>
                                <ellipse stroke="#A7A7A7" stroke-width="2" cx="5.56511916" cy="5.53476938" rx="6.56511916" ry="6.53476938"></ellipse>
                            </g>
                            <ellipse id="Oval-2" fill="#E3E3E3" mask="url(#mask-4)" cx="7.31138496" cy="7.17261556" rx="5.56511916" ry="5.53476938"></ellipse>
                        </g>
                        <mask id="mask-6" fill="white">
                            <use xlink:href="#path-5"></use>
                        </mask>
                        <g id="Mask" stroke-linecap="round" stroke-linejoin="round">
                            <use fill="#F6F6F6" fill-rule="evenodd" xlink:href="#path-5"></use>
                            <path stroke="#A7A7A7" stroke-width="2" d="M4.95906739,13.4078463 L19.3371685,-2.8841143 L19.1199993,0.0764623333 L16.575554,34.7385643 C16.571927,35.0302401 16.5350838,35.5072379 16.4363314,36.1106894 C16.2724153,37.1123401 15.9868327,38.1157405 15.5456408,39.0623664 C15.2874251,39.6163964 14.9821556,40.1349958 14.6255574,40.6107706 C13.9024059,41.5756025 12.2233263,43.7086014 10.6103093,45.6677443 C5.8287859,51.4753011 2.61133017,54.799216 0.830201032,54.9097402 C0.417622711,54.9049128 0.109301592,54.6782958 -0.0599916125,54.379238 C-0.136610362,54.2438904 -0.17458294,54.1165284 -0.196888942,53.9802755 C-0.219625513,53.8413925 -0.223921497,53.6942615 -0.217176814,53.5160845 C-0.207060191,53.2488297 -0.16907929,52.8844724 -0.103987301,52.4081049 C0.0103712548,51.5711863 0.210100663,50.3765452 0.511543037,48.7042507 C0.784681323,47.1889772 2.2636355,39.2994155 2.66960342,37.0726654 C2.90839233,35.7628987 3.12848609,34.5344362 3.33499058,33.3558671 C5.24862579,22.4343062 6.00446002,15.4462566 5.27024253,14.0146064 L4.95906739,13.4078463 Z"></path>
                        </g>
                        <path d="M11.4739518,10.5916787 C10.6442827,20.5310614 8.37074013,45.0572307 7.707063,50.9904156 C9.17660996,50.8968857 10.8912351,46.0262546 14.1522041,42.0655373 C16.1486557,39.6406813 17.768443,37.539189 18.1392708,37.044429 C19.8522344,34.7589856 19.8895326,31.7595378 19.8895326,31.7595378 L22.4365802,-2.96328723 L11.4739518,10.5916787 Z" fill="#E3E3E3" mask="url(#mask-6)"></path>
                    </g>
                    <g id="烟雾">
                        <path d="M13.8991733,41.1438116 C4.88485168,43.309895 3.79220664,51.703468 4.61169042,55.7648743 C5.43117421,59.8262806 7.49754864,65.0251976 16.6307859,66.5952911 C22.7196108,67.6420201 27.9110251,66.3628205 32.205029,62.7576923 C33.3500967,68.2602564 36.0803589,72.3373137 40.3958157,74.9888641 C46.8690008,78.9661898 53.4453507,75.8011454 55.8938801,74.3119631 C58.3424095,72.8227808 64.672892,73.049522 62.2872625,78.9148902 C61.2697869,81.4164811 60.4401905,83.928901 60.4401905,87.3496659 C60.4401905,94.1069042 64.256334,97.8975501 67.9065582,100.36971 C69.3970052,101.379135 71.1115045,101.873567 73.0500559,101.853007 C71.1302808,97.5679287 70.1703932,93.5771556 70.1703932,89.8806872 C69.565751,83.2293987 68.5446154,74.9888641 86.5004978,74.9888641 C94.0213188,74.9888641 100.927684,70.7838975 107.219593,62.3739641 C115.226647,64.2426034 120.995487,63.6733727 124.526112,60.6662718 C129.82205,56.1556205 131.114406,50.3531951 129.348798,44.6083654 C134.432792,45.2440637 142.072477,46.4766147 144.229428,37.7416481 C146.386379,29.0066815 140.11152,25.7104677 136.287262,24.627426 C141.75,20 136.287262,4.75 123.821356,8.5701559 C120.834809,0.659242762 106.990413,-2.54968499 97.9379483,2.63697105 C94.25,4.75 92,7.82113246 92,10.75 C92,16.75 88,14.7509766 86.5004978,17.25 C86.5004978,20.75 84.75,25.75 79,29.0066815 C72.6512607,32.6024766 71.2490234,27.2490234 60.4401905,29.0066815 C51.6029372,30.4437349 54.4670963,33.9510022 47.830325,35.2694878 C35.6678509,37.6857298 36.2159752,29.0066815 24.933464,29.0066815 C16.6307859,29.0066815 14.6464685,36.8116449 13.8991733,41.1438116 Z" id="Path-2" fill="#E3E3E3"></path>
                        <path d="M8.97794118,39.7900095 C2.99264706,41.2340651 -5.68434189e-14,45.8369923 -5.68434189e-14,53.598791 C0.406246444,60.7839937 3.94301115,65.8381882 10.6102941,68.7613745 C17.2775771,71.6845607 24.2849774,71.1538462 31.6324952,67.1692308 C32.4276171,71.7544694 34.4888442,75.0830417 37.8161765,77.1549475 C42.8071749,80.2628062 47.237314,79.9708291 50.2735426,79.1091314 C52.5964126,78.4498886 56.2046335,77.3046619 58.2376682,74.8240535 C60.6844542,72.5251519 65.5321846,74.6784389 61.8878924,80.2628062 C58.2157083,85.8899141 59.5650224,92.1291759 64.5426009,97.7327394" id="Path-2" stroke="#A7A7A7" stroke-width="2" stroke-linecap="round" stroke-linejoin="round"></path>
                        <path d="M73.4558824,101.523385 C64.5426009,80.922049 74.5121937,75.1757027 78.8970588,75.2596246 C89.8878143,76.7038462 100.389706,73.9058225 107.463235,62.8046452 C113.176471,66.0537703 118.519243,66.5638231 123.953578,64.3230769 C129.387914,62.0823307 133.257253,54.5038462 130.394584,46.8192308 C136.379878,48.5269231 143.35426,47.1358575 146.367647,41.1438116 C149.381034,35.1517658 148.331839,27.0289532 141.363229,24.0623608" id="Path-6" stroke="#A7A7A7" stroke-width="2" stroke-linecap="round" stroke-linejoin="round"></path>
                        <path d="M77.0020009,54.6804062 C79.0975798,56.7443292 81.8123824,57.1386203 85.1464087,55.8632795 C88.480435,54.5879388 90.3255828,52.1176382 90.6818521,48.4523779" id="Path-23-Copy-3" stroke="#C9C9C9" stroke-width="2" stroke-linecap="round" transform="translate(83.841926, 52.523140) rotate(-351.000000) translate(-83.841926, -52.523140) "></path>
                        <path d="M31.6324952,67.1692308 C32.9684075,66.3153846 34.0180529,65.5564103 34.7814313,64.8923077" id="Path-4" stroke="#A7A7A7" stroke-width="2" stroke-linecap="round" stroke-linejoin="round"></path>
                        <path d="M105.775629,63.7538462 C107.111541,62.9 108.161186,62.1410256 108.924565,61.4769231" id="Path-4" stroke="#A7A7A7" stroke-width="2" stroke-linecap="round" stroke-linejoin="round" transform="translate(107.350097, 62.615385) scale(-1, 1) rotate(7.000000) translate(-107.350097, -62.615385) "></path>
                        <path d="M128.998749,47.6814945 C129.553141,47.049016 130.386206,46.2952343 131.497947,45.4201494" id="Path-4" stroke="#A7A7A7" stroke-width="2" stroke-linecap="round" stroke-linejoin="round" transform="translate(130.248348, 46.550822) scale(-1, 1) rotate(-28.000000) translate(-130.248348, -46.550822) "></path>
                        <g id="Group-8" transform="translate(100.762089, 10.238462)" stroke="#C9C9C9" stroke-width="2" stroke-linecap="round" stroke-linejoin="round">
                            <path d="M1.89135361,27.9473682 C3.77493717,28.7881997 8.27324284,29.6298311 11.5053505,26.8280494 C13.6600889,24.9601949 14.6795754,22.6514931 14.5638099,19.901944 C18.0697569,19.6731174 20.6523269,18.6247768 22.3115197,16.7569223 C24.8003089,13.9551406 24.9662282,9.8348733 23.638874,7.85714502" id="Path-20" transform="translate(13.176594, 18.306422) rotate(-10.000000) translate(-13.176594, -18.306422) "></path>
                        </g>
                        <g id="Group-7" transform="translate(85.883946, 49.269231)" stroke="#C9C9C9" stroke-width="2" stroke-linecap="round">
                            <path d="M6.22713234,7.56712904 C9.24809213,11.0475367 12.9181523,12.6777181 17.2373129,12.457673 C21.5564734,12.237628 24.4921637,9.7195072 26.0443838,4.90331069" id="Path-23-Copy" transform="translate(16.135758, 8.690305) rotate(-32.000000) translate(-16.135758, -8.690305) "></path>
                        </g>
                        <g id="Group-6" transform="translate(23.760155, 44.804171)">
                            <path d="M0.76582671,3.59332041 C2.59493344,8.67517643 5.94126104,11.1258166 10.8048095,10.9452411 C15.668358,10.7646655 18.9515473,8.31402525 20.6543775,3.59332041" id="Path-23" stroke="#C9C9C9" stroke-width="2" stroke-linecap="round" transform="translate(10.710102, 7.273928) rotate(16.000000) translate(-10.710102, -7.273928) "></path>
                            <ellipse id="Oval-3" fill="#C9C9C9" cx="23.5425532" cy="3.49134615" rx="1.5" ry="1.49134615"></ellipse>
                        </g>
                    </g>
                    <g id="Fill-1" transform="translate(40.152466, 101.902527)">
                        <mask id="mask-8" fill="white">
                            <use xlink:href="#path-7"></use>
                        </mask>
                        <g id="Mask">
                            <use fill="#FFFFFF" fill-rule="evenodd" xlink:href="#path-7"></use>
                            <path stroke="#A7A7A7" stroke-width="2" d="M1.58323448,38.013 L-0.948820963,3.6426183 C-0.956309813,3.5933487 -0.964330408,3.53173463 -0.971944554,3.45894885 C-1.03776207,2.82978048 -1.00314518,2.14033546 -0.786695694,1.46104258 C-0.304147499,-0.053359485 0.953896352,-1.00264918 2.94558001,-0.996128464 L40.8623446,-0.996128464 L53.961491,-0.995367239 C56.0048412,-1.07514139 57.295117,-0.112689031 57.7855151,1.45459048 C57.9975117,2.13211728 58.0349852,2.81926211 57.9766584,3.44275449 C57.9674551,3.54113455 57.9575152,3.61715333 57.9596344,3.58015156 L55.4152312,37.9708659 C55.4116042,38.2625417 55.3747611,38.7395395 55.2760086,39.342991 C55.1120925,40.3446417 54.82651,41.348042 54.385318,42.2946679 C53.1760984,44.8891817 51.0380466,46.5636708 47.7864593,46.7677829 C47.4199955,46.7634951 40.2234093,46.7625398 28.5177376,46.7640693 C25.5790331,46.7644533 22.462001,46.7649819 19.2292159,46.7656229 C15.2486621,46.7664122 9.11683557,46.7678514 9.19610098,46.7674077 C5.86380231,46.6681143 3.66725968,44.9678797 2.49104177,42.2754438 C2.08884608,41.3547928 1.83448817,40.3798437 1.69544797,39.4034241 C1.61239524,38.8201804 1.58317721,38.3408107 1.58323448,38.013 Z"></path>
                        </g>
                        <path d="M43.1852146,1.98159982 L18.399091,1.98159982 L5.26844997,1.98159982 C1.72730048,1.97001571 2.36812653,5.50316944 2.36812653,5.50316944 L4.90625914,39.9560433 C4.90625914,39.9560433 4.80050362,47.5445002 11.548755,47.7455796 C11.9838385,47.7455796 49.2639723,47.7355516 50.121029,47.7455796 C56.6462324,47.3302806 56.7381785,39.9361601 56.7381785,39.9361601 L59.285226,5.48415075 C59.285226,5.48415075 59.8795546,1.84276339 56.3233721,1.98159982 L43.1852146,1.98159982 Z" fill="#F1F1F1" mask="url(#mask-8)"></path>
                        <path d="M65.8632378,21.5819923 L59.4541857,29.8974605" id="Path-22" stroke="#A7A7A7" stroke-width="2" stroke-linecap="round" stroke-linejoin="round"></path>
                        <path d="M65.8632378,16.883727 L61.2269022,22.7062643" id="Path-22-Copy" stroke="#A7A7A7" stroke-width="2" stroke-linecap="round" stroke-linejoin="round"></path>
                    </g>
                    <path d="M68.6840381,135.71237 C63.8990014,135.614508 61.044206,133.045575 61.044206,133.045575 C60.8429272,132.903051 60.7111913,132.670225 60.7111913,132.406457 C60.7111913,131.972585 61.0661149,131.621035 61.5041508,131.621035 C61.6829554,131.621035 61.8474838,131.680397 61.9800678,131.779379 C62.3103969,132.044127 64.8618605,134.007682 68.7255942,134.085664 C71.4322574,134.000262 74.3636631,132.673725 74.5882642,129.926147 C74.918452,125.902993 69.1446895,124.415731 68.0705899,124.077482 C66.9964903,123.739092 61.17679,122.217109 61.4285299,117.447454 C61.5458483,115.494119 63.3618809,112.031961 68.1018277,111.928919 C72.3014031,111.846596 74.5882642,113.802871 74.5882642,113.802871 C74.7486936,113.948196 74.8511706,114.156241 74.8511706,114.388648 C74.8511706,114.82238 74.4961057,115.17407 74.0582111,115.17407 C73.887322,115.17407 73.7294369,115.119889 73.5999625,115.028886 C73.5995385,115.029306 71.1293497,113.478482 68.1435252,113.473442 C64.8587508,113.596786 63.2753762,115.798908 63.1956562,117.65354 C63.1956562,120.659985 67.322579,121.948022 68.0602716,122.24539 C72.0311467,123.480925 76.7267105,124.971267 76.3344712,130.008469 C75.9044921,135.531065 69.6945313,135.762772 68.6840381,135.71237 Z" id="Path" fill="#A7A7A7"></path>
                </g>
                <g id="星星点点" transform="translate(1.000000, 18.000000)">
                    <g id="Group" transform="translate(0.000000, 23.000000)">
                        <circle id="Oval" stroke="#A7A7A7" stroke-width="2" fill="#F6F6F6" cx="13" cy="13" r="13"></circle>
                        <circle id="Oval" fill="#E3E3E3" cx="14.5" cy="13.5" r="10.5"></circle>
                        <path d="M13.3032738,14.7173644 L17.8995889,19.3136795 C18.2900793,19.7041699 18.9231892,19.7041699 19.3136795,19.3136795 L19.3136795,19.3136795 C19.7041699,18.9231892 19.7041699,18.2900793 19.3136795,17.8995889 L14.7173644,13.3032738 L19.3136799,8.70695834 L19.3136799,8.70695834 C19.7041703,8.316468 19.7041703,7.68335808 19.3136799,7.29286775 C18.9231896,6.90237742 18.2900797,6.90237742 17.8995894,7.29286775 L13.3032738,11.8891833 L8.70695834,7.29286775 C8.316468,6.90237742 7.68335808,6.90237742 7.29286775,7.29286775 L7.29286775,7.29286775 C6.90237742,7.68335808 6.90237742,8.316468 7.29286775,8.70695834 L7.29286775,8.70695834 L11.8891833,13.3032738 L7.29286817,17.8995889 L7.29286817,17.8995889 C6.90237783,18.2900793 6.90237783,18.9231892 7.29286817,19.3136795 L7.29286817,19.3136795 L7.29286817,19.3136795 C7.6833585,19.7041699 8.31646842,19.7041699 8.70695875,19.3136795 L8.70695875,19.3136795 L13.3032738,14.7173644 Z" id="Combined-Shape" fill="#A7A7A7"></path>
                    </g>
                    <circle id="Oval-5" stroke="#A7A7A7" stroke-width="2" fill="#F6F6F6" cx="99" cy="32" r="5"></circle>
                    <circle id="Oval-5-Copy" stroke="#A7A7A7" stroke-width="2" fill="#F6F6F6" cx="54" cy="48" r="3"></circle>
                    <path d="M85.4450445,48.7464865 L79.9448717,48.7464865 L79.9448717,48.7464865 C79.3926171,48.7464865 78.9449263,49.1941774 78.9449263,49.746432 C78.9449263,50.2986866 79.3926171,50.7463774 79.9448717,50.7463774 L85.4450445,50.7463774 L85.4450445,56.1470114 C85.4450445,56.699266 85.8927353,57.1469568 86.4449899,57.1469568 C86.9972446,57.1469568 87.4449354,56.699266 87.4449354,56.1470114 L87.4449354,56.1470114 L87.4449354,50.7463774 L92.9449809,50.7463774 C93.4972355,50.7463774 93.9449263,50.2986866 93.9449263,49.746432 L93.9449263,49.746432 C93.9449263,49.1941774 93.4972355,48.7464865 92.9449809,48.7464865 L92.9449809,48.7464865 L87.4449354,48.7464865 L87.4449354,43.1469022 L87.4449354,43.1469022 C87.4449354,42.5946476 86.9972446,42.1469568 86.4449899,42.1469568 C85.8927353,42.1469568 85.4450445,42.5946476 85.4450445,43.1469022 L85.4450445,43.1469022 L85.4450445,48.7464865 Z" id="Combined-Shape-Copy-4" fill="#A7A7A7" transform="translate(86.444926, 49.646957) rotate(-315.000000) translate(-86.444926, -49.646957) "></path>
                    <g id="圈圈" transform="translate(90.711407, 104.051397)">
                        <mask id="mask-10" fill="white">
                            <use xlink:href="#path-9"></use>
                        </mask>
                        <g id="Mask" stroke-linecap="round" stroke-linejoin="round">
                            <use fill="#F6F6F6" fill-rule="evenodd" xlink:href="#path-9"></use>
                            <ellipse stroke="#A7A7A7" stroke-width="2" cx="3.96333133" cy="3.98892473" rx="4.96333133" ry="4.98892473"></ellipse>
                        </g>
                        <ellipse id="Oval-2" fill="#E3E3E3" mask="url(#mask-10)" cx="5.61471938" cy="5.65374551" rx="3.96333133" ry="3.98892473"></ellipse>
                    </g>
                    <g id="圈圈-copy" transform="translate(141.845212, 0.000000)">
                        <circle id="Mask" stroke="#A7A7A7" stroke-width="1.8" fill="#F6F6F6" stroke-linecap="round" stroke-linejoin="round" transform="translate(10.829743, 11.812500) rotate(-360.000000) translate(-10.829743, -11.812500) " cx="10.8297433" cy="11.8125" r="10.15625"></circle>
                        <path d="M11.9514131,20.454026 C16.2317486,20.454026 19.7016461,16.9617215 19.7016461,12.6537455 C19.7016461,8.34576954 16.2317486,4.853465 11.9514131,4.853465 C7.6710776,4.853465 4.20118009,8.34576954 4.20118009,12.6537455 C4.20118009,16.9617215 7.6710776,20.454026 11.9514131,20.454026 Z" id="Path" fill="#E3E3E3"></path>
                        <text id="?" transform="translate(11.301902, 11.343267) rotate(-330.000000) translate(-11.301902, -11.343267) " font-family=".AppleSystemUIFont" font-size="18" font-weight="normal" fill="#A7A7A7">
                            <tspan x="6.80190249" y="17.8432667">?</tspan>
                        </text>
                    </g>
                    <text id="?-copy" transform="translate(73.548431, 78.558839) rotate(-30.000000) translate(-73.548431, -78.558839) " font-family=".SFNSDisplay, .SF NS Display" font-size="24" font-weight="normal" fill="#A7A7A7">
                        <tspan x="67.5484311" y="87.0588388">?</tspan>
                    </text>
                    <g id="圈圈-copy-2" transform="translate(110.753281, 95.097061)">
                        <mask id="mask-12" fill="white">
                            <use xlink:href="#path-11"></use>
                        </mask>
                        <g id="Mask" stroke-linecap="round" stroke-linejoin="round">
                            <use fill="#F6F6F6" fill-rule="evenodd" xlink:href="#path-11"></use>
                            <ellipse stroke="#A7A7A7" stroke-width="2" cx="2.14680447" cy="2.16066756" rx="3.14680447" ry="3.16066756"></ellipse>
                        </g>
                        <ellipse id="Oval-2" fill="#E3E3E3" mask="url(#mask-12)" cx="2.79819252" cy="3.49307795" rx="2.14680447" ry="2.16066756"></ellipse>
                    </g>
                </g>
                <g id="魔法棒" transform="translate(54.500000, 31.000000) rotate(-326.000000) translate(-54.500000, -31.000000) translate(23.000000, 15.000000)">
                    <mask id="mask-14" fill="white">
                        <use xlink:href="#path-13"></use>
                    </mask>
                    <g id="Mask">
                        <use fill="#E3E3E3" fill-rule="evenodd" xlink:href="#path-13"></use>
                        <path stroke="#A7A7A7" stroke-width="2" d="M1.66581607,13.675422 L48.1404667,13.675422 C49.6127562,13.675422 50.8062827,14.8689485 50.8062827,16.3412381 C50.8062827,17.8135276 49.6127562,19.0070541 48.1404667,19.0070541 L1.66581607,19.0070541 C0.193526507,19.0070541 -1,17.8135276 -1,16.3412381 C-1,14.8689485 0.193526507,13.675422 1.66581607,13.675422 Z"></path>
                    </g>
                    <g id="Rectangle-11-Copy" mask="url(#mask-14)">
                        <use fill="#F6F6F6" fill-rule="evenodd" xlink:href="#path-15"></use>
                        <path stroke="#A7A7A7" stroke-width="2" d="M-18.7697661,13.6755129 L42.9359799,13.6755129 L42.9359799,19.007145 L-18.7697661,19.007145 L-18.7697661,13.6755129 Z"></path>
                    </g>
                    <path d="M54.7539267,9.96870634 L59.8701018,6.92594603" id="Path-18" stroke="#A7A7A7" stroke-width="2" stroke-linecap="round" stroke-linejoin="round"></path>
                    <path d="M55.4136126,22.3382668 L59.9736519,26.1786527" id="Path-18-Copy-2" stroke="#A7A7A7" stroke-width="2" stroke-linecap="round" stroke-linejoin="round"></path>
                    <path d="M51.1256545,26.3362254 L53.2706538,31.9281074" id="Path-18-Copy-3" stroke="#A7A7A7" stroke-width="2" stroke-linecap="round" stroke-linejoin="round"></path>
                    <path d="M53.2587352,0.00413389333 L50.3447943,5.22911284" id="Path-18-Copy-4" stroke="#A7A7A7" stroke-width="2" stroke-linecap="round" stroke-linejoin="round"></path>
                    <path d="M56.8880985,16.3926387 L62.8252713,16.3926387" id="Path-18-Copy" stroke="#A7A7A7" stroke-width="2" stroke-linecap="round" stroke-linejoin="round"></path>
                </g>
                <path d="M10,108.750218 C13.7845511,112.162601 19.2321268,113.519992 26.342727,112.822391 C33.4533273,112.12479 38.0057516,110.517326 40,108" id="Path-19" stroke="#A7A7A7" stroke-width="2" stroke-linecap="round" stroke-dasharray="1,4,1,4" transform="translate(25.000000, 110.500000) rotate(10.000000) translate(-25.000000, -110.500000) "></path>
            </g>
        </g>
    </g>
</svg>